<?xml version="1.0" encoding="UTF-8"?>
<svg width="752pt" height="752pt" version="1.1" viewBox="0 0 752 752" xmlns="http://www.w3.org/2000/svg">
 <g>
  <path d="m195.45 573.47h136.75c6.1289 0 11.098-4.9688 11.098-11.098 0-6.1328-4.9688-11.102-11.098-11.102h-136.75c-8.0156-0.03125-15.695-3.2422-21.344-8.9258-5.6523-5.6836-8.8203-13.379-8.8047-21.398v-310.42c0.007813-7.9922 3.1875-15.656 8.8398-21.312 5.6523-5.6523 13.312-8.8359 21.309-8.8477h79.234v93.414c0.007812 10.121 5.375 19.48 14.105 24.602 8.7305 5.1211 19.516 5.2383 28.355 0.30469l30.59-18.883c1.5938-0.85547 3.4766-0.99609 5.1797-0.38281l31.965 19.43h0.003906c0.20703 0.13672 0.42578 0.26172 0.64844 0.37109 8.8516 4.5898 19.453 4.2305 27.969-0.94922 8.5195-5.1758 13.719-14.422 13.723-24.387v-93.52h78.586c8.0156-0.011719 15.707 3.1602 21.391 8.8125 5.6836 5.6562 8.8906 13.332 8.918 21.348v167.52c0 6.1328 4.9688 11.102 11.098 11.102 6.1328 0 11.102-4.9688 11.102-11.102v-167.52c-0.035156-13.898-5.5859-27.219-15.43-37.035-9.8438-9.8164-23.18-15.328-37.078-15.324h-89.406-0.28125-130.39-0.28125-89.996c-13.891 0.003906-27.211 5.5195-37.035 15.34-9.8281 9.8164-15.355 23.133-15.371 37.02v310.42c-0.007813 13.914 5.5078 27.258 15.336 37.109 9.8242 9.8477 23.156 15.391 37.07 15.414zm209.57-299.58c0.007812 2.2188-1.1484 4.2812-3.0508 5.4297-1.7891 1.1055-4.0156 1.2305-5.918 0.32422l-32.262-19.535c-8.5312-4.3398-18.656-4.1719-27.039 0.44531l-30.574 18.855c-1.9688 1.0312-4.332 0.95703-6.2344-0.19141-1.8984-1.1523-3.0625-3.2109-3.0625-5.4336v-93.414h108.14z" fill = '#AFE4C2'/>
  <path d="m293.02 466.16h-81.012c-6.1289 0-11.098 4.9688-11.098 11.098 0 6.1328 4.9688 11.102 11.098 11.102h81.012c6.1328 0 11.102-4.9688 11.102-11.102 0-6.1289-4.9688-11.098-11.102-11.098z" fill = '#AFE4C2'/>
  <path d="m608.96 478.86c-0.011719-8.4023-3.3516-16.461-9.2891-22.41-5.9375-5.9492-13.988-9.3047-22.395-9.332h-12.699c-8.1133 0.007813-15.91 3.1484-21.77 8.7617l-36.688-46.133c-6.6797-8.4062-16.562-13.648-27.27-14.465-10.707-0.81641-21.27 2.8633-29.148 10.16-7.8789 7.2969-12.359 17.543-12.367 28.281v25.734l-21.492 0.003906c-8.4297 0.019531-16.684 2.4102-23.816 6.9062-7.1328 4.4922-12.855 10.906-16.512 18.504-5.1094 10.566-5.8086 22.73-1.9531 33.816l14.547 44.855c3.1133 8.8594 8.8984 16.531 16.555 21.965 7.6602 5.4297 16.812 8.3516 26.203 8.3594h65.012c10.73 0.003907 21.355-2.0586 31.301-6.082l13.215-5.3281h0.003906c5.9688 7.1953 14.816 11.371 24.168 11.41h12.711c8.418-0.015625 16.484-3.3672 22.434-9.3203 5.9531-5.9531 9.3008-14.023 9.3125-22.438zm-90.129 88.367h0.003906c-7.3125 2.9453-15.121 4.4492-23 4.4414h-64.969c-4.7461 0.007813-9.3789-1.4531-13.266-4.1797-3.8867-2.7227-6.8359-6.582-8.4453-11.047l-14.547-44.855v-0.003906c-2.418-6.8828-1.3438-14.508 2.8789-20.453 4.2188-5.9492 11.062-9.4805 18.355-9.4688h32.559c6.1328 0 11.102-4.9727 11.102-11.102v-36.836c0-4.5625 1.9023-8.9141 5.25-12.016 3.3477-3.0977 7.8359-4.6641 12.383-4.3164 4.5469 0.34766 8.7461 2.5781 11.582 6.1484l44.027 55.453v82.582zm67.93-5.0898c-0.007812 5.2734-4.2734 9.543-9.543 9.5625h-12.699c-5.2695-0.019531-9.5352-4.2891-9.5469-9.5625v-83.277c0.019531-5.2617 4.2812-9.5273 9.5469-9.543h12.758c5.2656 0.015625 9.5273 4.2812 9.5469 9.543z" fill = '#AFE4C2'/>
 </g>
</svg>
