<?xml version="1.0" encoding="UTF-8"?>
<svg width="752pt" height="752pt" version="1.1" viewBox="0 0 752 752" xmlns="http://www.w3.org/2000/svg">
 <path d="m509.2 360.02-14.801-177.59h0.003907c-0.30078-3.7188-1.9883-7.1836-4.7344-9.707-2.7422-2.5234-6.3398-3.9219-10.066-3.9102h-207.19c-3.7305-0.011719-7.3242 1.3867-10.066 3.9102-2.7461 2.5234-4.4336 5.9883-4.7344 9.707l-14.801 177.59h0.003906c-0.33203 4.125 1.0781 8.1992 3.8906 11.238 2.8125 3.0352 6.7695 4.7578 10.906 4.7422h44.398v29.598l-14.801 0.003906c-3.9219 0-7.6875 1.5586-10.465 4.332-2.7734 2.7773-4.332 6.5391-4.332 10.465v118.39c0 5.2891 2.8203 10.176 7.3984 12.82 4.5781 2.6406 10.223 2.6406 14.801 0 4.5781-2.6445 7.3984-7.5312 7.3984-12.82v-14.797h29.598v44.398c0 3.9258 1.5625 7.6875 4.3359 10.465 2.7773 2.7734 6.5391 4.332 10.465 4.332h59.199c3.9219 0 7.6875-1.5586 10.465-4.332 2.7734-2.7773 4.332-6.5391 4.332-10.465v-44.398h29.598v14.801l0.003906-0.003906c0 5.2891 2.8203 10.176 7.3984 12.82 4.5781 2.6406 10.219 2.6406 14.801 0 4.5781-2.6445 7.3984-7.5312 7.3984-12.82v-118.39c0-3.9258-1.5586-7.6875-4.3359-10.465-2.7734-2.7734-6.5391-4.332-10.465-4.332h-14.797v-29.602h44.398c4.1367 0.015625 8.0938-1.707 10.906-4.7422 2.8125-3.0391 4.2227-7.1133 3.8906-11.238zm-207.19 75.18h148v59.199h-148zm88.797 118.39h-29.598v-29.598h29.598zm29.598-147.99h-88.797v-29.602h88.797zm-146.66-59.199 12.281-147.99h179.96l12.285 147.99z" fill = '#AFC8E4'/>
</svg>
