<?xml version="1.0" encoding="UTF-8"?>

<svg width="752pt" height="752pt" version="1.1" viewBox="0 0 752 752" xmlns="http://www.w3.org/2000/svg">
 <defs>
  <clipPath id="a">
   <path d="m139.21 228h473.58v296h-473.58z"/>
  </clipPath>
 </defs>
 <path d="m281.29 427.23c-9.8086 0-17.758 7.6445-17.758 17.074 0 9.4336 7.9492 17.078 17.758 17.078h189.43c9.8086 0 17.758-7.6445 17.758-17.078 0-9.4297-7.9492-17.074-17.758-17.074z" fill = '#BBAFE4'/>
 <path d="m192.49 444.3c0-9.4297 7.9531-17.074 17.762-17.074h23.676c9.8086 0 17.762 7.6445 17.762 17.074 0 9.4336-7.9531 17.078-17.762 17.078h-23.676c-9.8086 0-17.762-7.6445-17.762-17.078z" fill = '#BBAFE4'/>
 <path d="m210.25 290.62c-9.8086 0-17.762 7.6445-17.762 17.074 0 9.4336 7.9531 17.078 17.762 17.078h23.676c9.8086 0 17.762-7.6445 17.762-17.078 0-9.4297-7.9531-17.074-17.762-17.074z" fill = '#BBAFE4'/>
 <path d="m263.53 307.7c0-9.4297 7.9492-17.074 17.758-17.074h23.68c9.8086 0 17.758 7.6445 17.758 17.074 0 9.4336-7.9492 17.078-17.758 17.078h-23.68c-9.8086 0-17.758-7.6445-17.758-17.078z" fill = '#BBAFE4'/>
 <path d="m352.32 290.62c-9.8125 0-17.762 7.6445-17.762 17.074 0 9.4336 7.9492 17.078 17.762 17.078h23.676c9.8086 0 17.762-7.6445 17.762-17.078 0-9.4297-7.9531-17.074-17.762-17.074z" fill = '#BBAFE4'/>
 <path d="m405.6 307.7c0-9.4297 7.9492-17.074 17.758-17.074h23.68c9.8086 0 17.758 7.6445 17.758 17.074 0 9.4336-7.9492 17.078-17.758 17.078h-23.68c-9.8086 0-17.758-7.6445-17.758-17.078z" fill = '#BBAFE4'/>
 <path d="m299.04 376c0-9.4297 7.9531-17.074 17.762-17.074h35.52c9.8086 0 17.758 7.6445 17.758 17.074 0 9.4336-7.9492 17.078-17.758 17.078h-35.52c-9.8086 0-17.762-7.6445-17.762-17.078z" fill = '#BBAFE4'/>
 <path d="m399.68 358.93c-9.8086 0-17.758 7.6445-17.758 17.074 0 9.4336 7.9492 17.078 17.758 17.078h35.52c9.8086 0 17.758-7.6445 17.758-17.078 0-9.4297-7.9492-17.074-17.758-17.074z" fill = '#BBAFE4'/>
 <path d="m500.32 444.3c0-9.4297 7.9492-17.074 17.758-17.074h23.68c9.8086 0 17.762 7.6445 17.762 17.074 0 9.4336-7.9531 17.078-17.762 17.078h-23.68c-9.8086 0-17.758-7.6445-17.758-17.078z" fill = '#BBAFE4'/>
 <path d="m482.56 358.93c-9.8086 0-17.762 7.6445-17.762 17.074 0 9.4336 7.9531 17.078 17.762 17.078h59.195c9.8086 0 17.762-7.6445 17.762-17.078 0-9.4297-7.9531-17.074-17.762-17.074z" fill = '#BBAFE4'/>
 <path d="m192.49 376c0-9.4297 7.9531-17.074 17.762-17.074h59.195c9.8086 0 17.758 7.6445 17.758 17.074 0 9.4336-7.9492 17.078-17.758 17.078h-59.195c-9.8086 0-17.762-7.6445-17.762-17.078z" fill = '#BBAFE4'/>
 <path d="m506.23 290.62c-9.8086 0-17.758 7.6445-17.758 17.074 0 9.4336 7.9492 17.078 17.758 17.078h35.52c9.8086 0 17.762-7.6445 17.762-17.078 0-9.4297-7.9531-17.074-17.762-17.074z" fill = '#BBAFE4'/>
 <g clip-path="url(#a)">
  <path d="m198.41 524c-32.695 0-59.199-25.484-59.199-56.922v-182.14c0-31.438 26.504-56.922 59.199-56.922h355.18c32.695 0 59.199 25.484 59.199 56.922v182.14c0 31.438-26.504 56.922-59.199 56.922zm-23.68-56.922v-182.14c0-12.578 10.602-22.77 23.68-22.77h355.18c13.078 0 23.68 10.191 23.68 22.77v182.14c0 12.574-10.602 22.77-23.68 22.77h-355.18c-13.078 0-23.68-10.195-23.68-22.77z" fill = '#BBAFE4' fill-rule="evenodd" />
 </g>
</svg>
